<?xml version="1.0" encoding="utf-8"?>
<!-- Generator: Adobe Illustrator 14.0.0, SVG Export Plug-In . SVG Version: 6.00 Build 43363)  -->
<!DOCTYPE svg PUBLIC "-//W3C//DTD SVG 1.1//EN" "http://www.w3.org/Graphics/SVG/1.1/DTD/svg11.dtd">
<svg version="1.1" id="Layer_1" xmlns="http://www.w3.org/2000/svg" xmlns:xlink="http://www.w3.org/1999/xlink" x="0px" y="0px"
	 width="252px" height="144px" viewBox="0 0 252 144" enable-background="new 0 0 252 144" xml:space="preserve">
<g>
	<path fill="#DBDDCC" d="M112.514,14.106C95.221,7.559,76.931,4.854,58.143,4.854l0,0c-27.115,0-47.966,6.405-54.798,8.682
		L2.775,13.75L0,14.675l0.213,2.918L10.746,119.29l0.213,4.839l2.349,0.783l42.486,13.949l1.139,0.355l1.139-0.355l44.052-13.023
		l2.42-0.713l0.213-4.91l10.248-102.337l0.213-2.775L112.514,14.106z M3.558,17.167c4.626-1.922,9.608-2.847,9.608-2.847
		c-3.274,0.711-7.615,2.633-8.398,3.487s0.925,20.211,0.925,20.211L3.558,17.167z M57.146,136.512l-11.173-3.486l11.173,2.49
		l11.671-2.49L57.146,136.512z M57.004,131.815l-38.928-11.956l-1.495-16.439l1.566,6.547l-0.071-0.498c0,0,2.918-1.352,8.113-3.131
		c0-0.143,0-0.285-0.071-0.355c-1.139,0.284-1.637,0.426-2.775,0.641c-0.427-1.281-0.712-2.918-0.997-4.342
		c0.997-0.355,2.349-0.854,3.487-1.281c0-0.143-0.071-2.348,0-2.633c-1.281-0.428-2.491-0.926-3.701-1.424
		c0.356-1.281,0.996-2.562,1.708-3.771c1.423,0.071,2.847,0.143,4.27,0.285c0.355-0.498,2.206-2.277,2.633-2.705
		c-0.711-0.782-1.352-1.637-1.993-2.562c1.353-0.997,2.918-1.779,4.484-2.491c1.209,0.57,2.348,1.139,3.416,1.779
		c0.711-0.285,3.701-1.067,4.412-1.281c0-0.925,0.142-1.85,0.356-2.846c1.921-0.356,3.914-0.428,5.835-0.428
		c0.569,0.854,1.067,1.779,1.423,2.705c0.783,0.07,3.985,0.355,4.768,0.568c0.783-0.782,1.708-1.565,2.633-2.205
		c1.85,0.426,3.701,0.996,5.337,1.778c-0.213,0.925-0.569,1.851-0.925,2.775c0.641,0.356,3.131,1.779,3.63,2.206
		c1.281-0.355,2.633-0.641,4.056-0.925c1.21,1.067,2.277,2.206,3.131,3.416c-0.996,0.712-1.993,1.353-3.06,1.993
		c0.142,0.355,0.641,0.925,0.996,1.423c9.465-0.997,19.642-1.21,29.961-0.071v0.071c-8.611-0.143-55.581-0.214-80.418,16.581
		l0.783,3.346l37.504,11.102l38.003-11.102l3.559-13.379l-1.495,16.865L57.004,131.815z M99.348,95.947l-7.259-3.416l-4.555-1.992
		c0,0-24.979-11.316-26.616-11.529c-4.768-0.427-35.654,3.416-35.654,3.416l-8.398,8.256l-1.139,3.842L9.181,21.721
		c9.323-3.131,49.46-17.578,96.786,0.285L99.348,95.947z M109.454,38.729c0,0,1.708-19.357,0.925-20.211s-5.124-2.775-8.397-3.487
		c0,0,4.981,0.925,9.607,2.775L109.454,38.729z"/>
	<path fill="#DBDDCC" d="M62.128,97.441l-6.334-4.839l-7.045-1.708l-7.899,1.067l-5.836,3.63c0,0-1.281,4.625-1.281,5.124
		c0.285,0.214,1.139,1.637,1.637,2.562C42.628,101.214,51.809,98.937,62.128,97.441z"/>
	<path fill="#DBDDCC" d="M97.854,64.065c-2.917-0.997-10.461-1.993-19.57-1.423c10.817-1.708,19.855-1.637,20.354-1.067
		c0.569,0.783,0.854,6.832,1.139,6.12c0.427-0.996,2.775-8.967,2.989-11.031c0.071-0.925-8.469-18.646-8.469-18.646
		c-0.071-0.071-0.071-0.142-0.142-0.142l0,0c-0.499,0.071-11.743,2.063-13.095,2.419c-0.214,0.071-4.768,3.131-9.892,7.543
		c4.768-4.981,8.896-8.326,9.323-8.611c1.067-0.783,12.169-2.42,12.596-2.562c0.783-0.143,7.045,4.625,7.045,4.625l-9.465-12.027
		c0,0-8.398-3.843-8.469-3.914c-0.071,0-0.071,0-0.143,0c-2.063,1.281-7.401,3.202-10.888,5.266
		c-0.214,0.143-1.495,2.42-2.989,5.622c1.281-3.487,2.42-5.835,2.562-5.978c1.281-1.423,9.679-5.978,9.679-5.978l0.925-0.356
		c0,0,5.053,1.281,5.764,1.209c0.285,0-5.835-2.846-5.835-2.846l-10.533-1.779c-0.142,0.071-0.285,0.142-0.356,0.213
		c-0.64,0.925-4.554,2.491-8.824,4.341c-0.285,0.142-1.566,2.847-2.135,5.551c0.427-2.775,1.566-5.907,1.708-5.978
		c3.274-1.708,8.255-4.127,8.255-4.127l0.569-0.641l4.127-0.925l-5.266-0.854l-8.469-0.285l-4.341,0.783l-8.825,3.06
		c-0.711-0.641-7.188-6.121-6.476-4.911c0.569,1.139,0.854,5.48,0.925,6.689c-0.641,0.285-2.419,1.139-3.273,1.708l-9.252,11.885
		L20.14,48.551l-2.206,1.993l-1.637,4.341c0,0,5.124,8.469,5.907,8.469c0.285,0,0.285,0.213,0.285,0.213
		c4.412,2.135,6.618,3.914,7.543,3.273c0.925-0.64,1.21-4.91,5.409-7.828c2.633-1.851,6.974-5.337,6.974-5.337l6.761-2.277
		l3.061-1.851l4.91-4.127l-0.783,7.899c0,0-6.476,6.334-10.889,9.181c-0.285,0.213-18.503,18.077-18.503,18.077
		s21.421-2.491,34.444-2.776c1.851-0.071,30.53,12.882,30.53,12.882l-5.337-7.046l-0.854-3.914c0,0,12.881,14.66,12.312,12.099
		c-0.356-1.637,1.85-17.935,1.85-17.935L97.854,64.065z M20.425,57.802c0,0-1.993-2.349-2.064-2.704
		c-0.071-0.356,0.783-2.207,1.21-2.42c0.142-0.142,0.213,0.071,0.285,0.213C22.702,59.012,20.425,57.802,20.425,57.802z
		 M39.142,33.463l-1.139,3.701l-3.131,1.423l0.071-3.131l-0.925,0.427l2.704-3.487l3.203-2.847L39.142,33.463z M53.09,45.633
		l2.135-5.551l-3.203-7.117l3.06,2.419l1.495,4.911L53.09,45.633z M60.847,68.976l-3.203,0.569l-1.352-2.847l2.775-2.349
		l2.562,1.565L60.847,68.976z M61.986,36.808l-0.925-1.352l1.281-1.139l1.495,0.712l-0.356,1.565L61.986,36.808z M63.694,45.135
		l1.921-1.779l1.779,1.067l-0.783,2.207l-2.206,0.355L63.694,45.135z M69.529,59.154l-2.562,0.427l-0.925-2.562l2.135-1.708
		l2.206,1.139L69.529,59.154z"/>
</g>
<g>
	<path fill="#DBDDCC" d="M122.05,59.653c0.783,0.071,0.996,0.071,1.495,0.071c3.843,0,4.91-1.423,4.91-6.689V15.031h9.963v41.561
		c0,4.413-0.142,5.338-1.28,7.259c-1.708,2.917-4.697,4.412-9.109,4.412c-1.708,0-3.559-0.142-6.049-0.569v-8.042H122.05z"/>
	<path fill="#DBDDCC" d="M143.543,15.031h22.274v7.829h-12.383v13.308h9.109v8.397h-9.109v14.874h12.383v7.829h-22.274V15.031z"/>
	<path fill="#DBDDCC" d="M169.02,52.18h8.754v1.637c0,4.27,1.352,6.405,4.128,6.405c2.491,0,4.412-2.064,4.412-4.839
		c0-3.274-1.495-5.48-6.263-9.323c-7.33-5.836-10.318-10.96-10.318-17.792c0-8.326,5.337-14.233,12.667-14.233
		c7.472,0,12.026,5.479,12.026,14.162v1.637h-8.469V28.98c0-3.772-0.213-4.413-1.28-5.693c-0.641-0.711-1.565-1.139-2.491-1.139
		c-2.277,0-3.843,1.993-3.843,4.768c0,2.989,1.067,4.483,6.761,9.465c8.042,7.045,10.105,10.461,10.105,17.151
		c0,8.896-5.408,14.803-13.664,14.803c-7.757,0-12.525-5.622-12.525-14.803V52.18L169.02,52.18z"/>
	<path fill="#DBDDCC" d="M198.839,52.18h8.753v1.637c0,4.27,1.353,6.405,4.128,6.405c2.491,0,4.413-2.064,4.413-4.839
		c0-3.274-1.495-5.48-6.264-9.323c-7.33-5.836-10.318-10.96-10.318-17.792c0-8.326,5.337-14.233,12.667-14.233
		c7.473,0,12.027,5.479,12.027,14.162v1.637h-8.469V28.98c0-3.772-0.214-4.413-1.281-5.693c-0.64-0.711-1.565-1.139-2.491-1.139
		c-2.277,0-3.842,1.993-3.842,4.768c0,2.989,1.066,4.483,6.76,9.465c8.043,7.045,10.105,10.461,10.105,17.151
		c0,8.896-5.408,14.803-13.663,14.803c-7.757,0-12.525-5.622-12.525-14.803V52.18z"/>
	<path fill="#DBDDCC" d="M229.654,15.031h22.274v7.829h-12.383v13.308h9.109v8.397h-9.109v14.874h12.383v7.829h-22.274V15.031z"/>
</g>
<g>
	<path fill="#DBDDCC" d="M121.36,76.824h8.584v19.935l7.731-19.935h8.158l-7.094,15.11l7.52,32.206h-8.441l-4.54-20.572
		l-3.334,7.023v13.549h-8.584V76.824z"/>
	<path fill="#DBDDCC" d="M149.596,76.824h9.009v36.108c0,2.624,0.071,3.121,0.639,3.901c0.426,0.567,1.348,0.922,2.341,0.922
		c1.206,0,2.199-0.496,2.695-1.418c0.355-0.639,0.497-1.419,0.497-3.405V76.824h8.016v35.398c0,3.973-0.283,5.746-1.206,7.662
		c-1.561,3.476-5.178,5.178-10.782,5.178c-8.087,0-11.208-3.334-11.208-12.13V76.824z"/>
	<path fill="#DBDDCC" d="M178.187,76.824h7.874l8.583,23.978V76.824h6.881v47.316h-6.668l-9.789-27.666v27.666h-6.881V76.824z"/>
	<path fill="#DBDDCC" d="M211.672,83.919h-7.52v-7.095h24.402v7.095h-7.874v40.222h-9.009V83.919z"/>
	<path fill="#DBDDCC" d="M230.118,118.892l11.705-34.973h-10.145v-7.095h20.218v5.18l-11.705,35.043h11.279v7.094h-21.353V118.892z"
		/>
</g>
</svg>
